<?xml version="1.0"?>
<svg xmlns:rdf="http://www.w3.org/1999/02/22-rdf-syntax-ns#" xmlns="http://www.w3.org/2000/svg" xmlns:cc="http://creativecommons.org/ns#" xmlns:dc="http://purl.org/dc/elements/1.1/" xmlns:svg="http://www.w3.org/2000/svg" id="svg27983" viewBox="0 0 85.015 128.14" version="1.1">
  <defs id="defs27985">
    <clipPath id="clipPath5367" clipPathUnits="userSpaceOnUse">
      <path id="path5369" d="m209.47 173.27h20.587v-31.932h-20.587v31.932z"/>
    </clipPath>
  </defs>
  <g id="layer1" transform="translate(-428.4 -436.96)">
    <g id="g4507" transform="matrix(1.25 0 0 -1.25 428.4 552.12)">
      <path id="path4509" d="m0 0s33.297 97.059 68.012 0-30.466-23.376-68.012 0" fill="#00796c"/>
    </g>
    <g id="g4511" transform="matrix(1.25 0 0 -1.25 452.47 495.18)">
      <path id="path4513" d="m0 0s-23.317 25.418 5.833 37.605-0.041 7.443-3.748 8.968 5.248-1.278 8.686-9.504c0 0 0.359 2.696 9.138 4.664 0 0-1.972 0.622-1.592-4.485 0 0 51.321-5.188 10.041-40.359 0 0-8.587 11.377-28.358 3.111" fill="#373535"/>
    </g>
    <g id="g4515" transform="matrix(1.25 0 0 -1.25 451.08 482.54)">
      <path id="path4517" d="m0 0s-3.166-9.224 9.061-21.675c12.228-12.443 21.146 9.281 24.624 17.763 0 0-7.705 6.873-10.202 12.855 0 0-5.981-2.505-3.479-8.481 0 0-5.113-0.382-9.485 10.083 0 0-5.286-8.357-10.519-10.545" fill="#f5e3bb"/>
    </g>
    <g id="g4519" transform="matrix(1.25 0 0 -1.25 492.25 487.83)">
      <path id="path4521" d="m0 0c0.715 0.173 1.5 0.234 2.225 0.147 0.928-0.116 1.619-0.699 1.848-1.601 0.263-1.038-0.24-1.876-0.665-2.791-0.804-1.729-2.129-3.426-3.846-4.328-0.376-0.195-0.879-0.323-1.275-0.08-0.551 0.344-0.931 1.389-1.036 1.996" fill="#f5e3bb"/>
    </g>
    <g id="g4523" transform="matrix(1.25 0 0 -1.25 451.74 482.26)">
      <path id="path4525" d="m0 0c-0.635 0.364-1.375 0.642-2.097 0.755-0.924 0.148-1.747-0.222-2.22-1.026-0.54-0.924-0.293-1.864-0.139-2.856 0.293-1.888 1.097-3.888 2.494-5.23 0.304-0.293 0.752-0.561 1.199-0.438 0.631 0.179 1.281 1.081 1.551 1.633" fill="#f5e3bb"/>
    </g>
    <g id="g4527" transform="matrix(1.25 0 0 -1.25 486.54 496.41)">
      <path id="path4529" d="m0 0c0-1.374-1.651-2.489-3.686-2.489-2.033 0-3.682 1.115-3.682 2.489 0 1.371 1.649 2.486 3.682 2.486 2.035 0 3.686-1.115 3.686-2.486" fill="#f6c589"/>
    </g>
    <g id="g4531" transform="matrix(1.25 0 0 -1.25 464.46 496.41)">
      <path id="path4533" d="m0 0c0-1.374-1.615-2.489-3.609-2.489-1.995 0-3.611 1.115-3.611 2.489 0 1.371 1.616 2.486 3.611 2.486 1.994 0 3.609-1.115 3.609-2.486" fill="#f6c589"/>
    </g>
    <g id="g4535" transform="matrix(1.25 0 0 -1.25 477.04 488.87)">
      <path id="path4537" d="m0 0s4.015 5.899 9.921 0" stroke="#373535" fill="none"/>
    </g>
    <g id="g4539" transform="matrix(1.25 0 0 -1.25 466.4 488.93)">
      <path id="path4541" d="m0 0s-3.956 5.945-9.917 0.099" stroke="#373535" fill="none"/>
    </g>
    <g id="g4543" transform="matrix(1.25 0 0 -1.25 475.22 504.9)">
      <path id="path4545" d="m0 0c0-1.436-1.375-2.601-3.069-2.601s-3.069 1.165-3.069 2.601c0 1.429 1.375 2.594 3.069 2.594s3.069-1.165 3.069-2.594" fill="#eb4a3f"/>
    </g>
    <path id="path4979" d="m438.65 485.16h-3.7288v-4.89h3.7288v4.89z" fill="#00b0f0"/>
    <path id="path4981" d="m504.67 485.16h3.73v-4.89h-3.73v4.89z" fill="#00b0f0"/>
    <g id="g4983" transform="matrix(1.25 0 0 -1.25 445.99 479.88)">
      <path id="path4985" d="m0 0s4.206-5.258-0.526-17.351-12.092 0.527-11.041 6.31 0.001 11.041 11.567 11.041" fill="#0077bd"/>
    </g>
    <g id="g4987" transform="matrix(1.25 0 0 -1.25 441.42 481.02)">
      <path id="path4989" d="m0 0s1.981-5.942-0.495-12.709 0.766 7.437-1.6 11.775 0.706 0.552 2.095 0.934" fill="#edba54"/>
    </g>
    <g id="g4991" transform="matrix(1.25 0 0 -1.25 432.28 494.46)">
      <path id="path4993" d="m0 0s-0.961 0.616 0.099 2.489-0.37 1.307-0.937 0.124-0.517-0.912-0.172-2.637c0 0 0.616-0.887 1.01 0.024" fill="#bec0c2"/>
    </g>
    <g id="g4995" transform="matrix(1.25 0 0 -1.25 445.03 479.87)">
      <path id="path4997" d="m0 0s0.647 2.119 2.002 0.059 3.945-6.891-1.118-17.724-1.001-0.999-1.472 0.296c0 0 5.181 10.069 0.588 17.369" fill="#737577"/>
    </g>
    <g id="g4999" transform="matrix(1.25 0 0 -1.25 497.34 479.88)">
      <path id="path5001" d="m0 0s-4.206-5.258 0.526-17.351 12.092 0.527 11.041 6.31-0.001 11.041-11.567 11.041" fill="#0077bd"/>
    </g>
    <g id="g5003" transform="matrix(1.25 0 0 -1.25 501.91 481.02)">
      <path id="path5005" d="m0 0s-1.98-5.942 0.496-12.709-0.767 7.437 1.599 11.775-0.706 0.552-2.095 0.934" fill="#edba54"/>
    </g>
    <g id="g5007" transform="matrix(1.25 0 0 -1.25 511.04 494.46)">
      <path id="path5009" d="m0 0s0.961 0.616-0.099 2.489 0.37 1.307 0.937 0.124 0.517-0.912 0.173-2.637c0 0-0.616-0.887-1.011 0.024" fill="#bec0c2"/>
    </g>
    <g id="g5011" transform="matrix(1.25 0 0 -1.25 498.3 479.87)">
      <path id="path5013" d="m0 0s-0.647 2.119-2.001 0.059-3.946-6.891 1.118-17.724 1-0.999 1.471 0.296c0 0-5.18 10.069-0.588 17.369" fill="#737577"/>
    </g>
    <g id="g5015" transform="matrix(1.25 0 0 -1.25 437.28 480.21)">
      <path id="path5017" d="m0 0s24.448 43.77 56.191-0.986-27.405 50.672-56.191 0.986" fill="#0077bd"/>
    </g>
    <g id="g5123" transform="matrix(1.25 0 0 -1.25 445.37 489.82)">
      <path id="path5125" d="m0 0c1.35-2.34 0.729-5.227-1.386-6.446s-4.924-0.312-6.274 2.03c-1.349 2.34-0.729 5.225 1.387 6.444 2.114 1.221 4.923 0.313 6.273-2.028" fill="#f5e3bb"/>
    </g>
    <g id="g5127" transform="matrix(1.25 0 0 -1.25 440.18 496.35)">
      <path id="path5129" d="m0 0c-1.247-1.205-0.419-7.435-0.299-8.936 0.278-3.491 1.609-7.378 3.324-10.4 0.558-0.981 1.626-3.169 2.997-3.157 1.632 0.015 3.4 3.68 3.648 4.96 0.262 1.355 0.24 3.063 0.096 4.427-0.549 5.188-3.913 10.258-6.971 14.285 0 0-1.679-0.102-2.795-1.179" fill="#f5e3bb"/>
    </g>
    <g id="g5131" transform="matrix(1.25 0 0 -1.25 441.26 517.7)">
      <path id="path5133" d="m0 0s8.284 2.944 8.258 8.498 5.172-9.384 1.142-13.747-6.122-4.34-9.758 5.018" fill="#00796c"/>
    </g>
    <g id="g5135" transform="matrix(1.25 0 0 -1.25 498.21 489.82)">
      <path id="path5137" d="m0 0c-1.35-2.34-0.729-5.227 1.386-6.446s4.924-0.312 6.274 2.03c1.349 2.34 0.729 5.225-1.387 6.444-2.114 1.221-4.923 0.313-6.273-2.028" fill="#f5e3bb"/>
    </g>
    <g id="g5139" transform="matrix(1.25 0 0 -1.25 503.41 496.35)">
      <path id="path5141" d="m0 0c1.247-1.205 0.419-7.435 0.299-8.936-0.278-3.491-1.609-7.378-3.324-10.4-0.558-0.981-1.626-3.169-2.997-3.157-1.632 0.015-3.4 3.68-3.648 4.96-0.262 1.355-0.24 3.063-0.096 4.427 0.549 5.188 3.913 10.258 6.971 14.285 0 0 1.679-0.102 2.795-1.179" fill="#f5e3bb"/>
    </g>
    <g id="g5143" transform="matrix(1.25 0 0 -1.25 502.33 517.7)">
      <path id="path5145" d="m0 0s-8.284 2.944-8.258 8.498-5.172-9.384-1.142-13.747 6.122-4.34 9.758 5.018" fill="#00796c"/>
    </g>
    <g id="g5363" transform="matrix(1.25 0 0 -1.25 174.85 732.78)">
      <g id="g5371">
        <g id="g5373" opacity=".5" clip-path="url(#clipPath5367)">
          <g id="g5375" transform="translate(225.22 171.57)">
            <path id="path5377" d="m0 0s-20.081-22.111-14.892-25.722c5.19-3.61 10.831-4.512 12.41-4.512 0 0 14.666 40.613 2.482 30.234" fill="#fff"/>
          </g>
        </g>
      </g>
    </g>
  </g>
  <metadata>
    <rdf:RDF>
      <cc:Work>
        <dc:format>image/svg+xml</dc:format>
        <dc:type rdf:resource="http://purl.org/dc/dcmitype/StillImage"/>
        <cc:license rdf:resource="http://creativecommons.org/licenses/publicdomain/"/>
        <dc:publisher>
          <cc:Agent rdf:about="http://openclipart.org/">
            <dc:title>Openclipart</dc:title>
          </cc:Agent>
        </dc:publisher>
        <dc:title>Boy with headphone4</dc:title>
        <dc:date>2010-11-30T01:08:25</dc:date>
        <dc:description>Boy with headphone4</dc:description>
        <dc:source>http://openclipart.org/detail/98731/boy-with-headphone4-by-dcatcherex</dc:source>
        <dc:creator>
          <cc:Agent>
            <dc:title>dcatcherex</dc:title>
          </cc:Agent>
        </dc:creator>
        <dc:subject>
          <rdf:Bag>
            <rdf:li>boy</rdf:li>
            <rdf:li>cartoon</rdf:li>
            <rdf:li>character</rdf:li>
            <rdf:li>clip art</rdf:li>
            <rdf:li>clipart</rdf:li>
            <rdf:li>headphone</rdf:li>
            <rdf:li>listen</rdf:li>
            <rdf:li>man</rdf:li>
            <rdf:li>music</rdf:li>
          </rdf:Bag>
        </dc:subject>
      </cc:Work>
      <cc:License rdf:about="http://creativecommons.org/licenses/publicdomain/">
        <cc:permits rdf:resource="http://creativecommons.org/ns#Reproduction"/>
        <cc:permits rdf:resource="http://creativecommons.org/ns#Distribution"/>
        <cc:permits rdf:resource="http://creativecommons.org/ns#DerivativeWorks"/>
      </cc:License>
    </rdf:RDF>
  </metadata>
</svg>
